<svg width="50" height="50" viewBox="0 0 50 50" fill="none" xmlns="http://www.w3.org/2000/svg">
<path d="M25 39.5833C25.412 39.5833 25.8148 39.4611 26.1574 39.2322C26.5 39.0032 26.7671 38.6779 26.9247 38.2972C27.0824 37.9165 27.1237 37.4976 27.0433 37.0935C26.9629 36.6894 26.7645 36.3181 26.4731 36.0268C26.1818 35.7354 25.8106 35.537 25.4064 35.4566C25.0023 35.3762 24.5834 35.4175 24.2027 35.5752C23.8221 35.7329 23.4967 35.9999 23.2678 36.3425C23.0388 36.6851 22.9167 37.0879 22.9167 37.4999C22.9167 38.0525 23.1362 38.5824 23.5269 38.9731C23.9176 39.3638 24.4475 39.5833 25 39.5833ZM35.4167 39.5833C35.8287 39.5833 36.2315 39.4611 36.5741 39.2322C36.9167 39.0032 37.1837 38.6779 37.3414 38.2972C37.4991 37.9165 37.5404 37.4976 37.46 37.0935C37.3796 36.6894 37.1812 36.3181 36.8898 36.0268C36.5984 35.7354 36.2272 35.537 35.8231 35.4566C35.419 35.3762 35.0001 35.4175 34.6194 35.5752C34.2387 35.7329 33.9134 35.9999 33.6844 36.3425C33.4555 36.6851 33.3333 37.0879 33.3333 37.4999C33.3333 38.0525 33.5528 38.5824 33.9435 38.9731C34.3342 39.3638 34.8641 39.5833 35.4167 39.5833ZM35.4167 31.2499C35.8287 31.2499 36.2315 31.1277 36.5741 30.8988C36.9167 30.6699 37.1837 30.3445 37.3414 29.9638C37.4991 29.5832 37.5404 29.1643 37.46 28.7601C37.3796 28.356 37.1812 27.9848 36.8898 27.6934C36.5984 27.4021 36.2272 27.2037 35.8231 27.1233C35.419 27.0429 35.0001 27.0842 34.6194 27.2418C34.2387 27.3995 33.9134 27.6665 33.6844 28.0091C33.4555 28.3518 33.3333 28.7545 33.3333 29.1666C33.3333 29.7191 33.5528 30.249 33.9435 30.6397C34.3342 31.0304 34.8641 31.2499 35.4167 31.2499ZM25 31.2499C25.412 31.2499 25.8148 31.1277 26.1574 30.8988C26.5 30.6699 26.7671 30.3445 26.9247 29.9638C27.0824 29.5832 27.1237 29.1643 27.0433 28.7601C26.9629 28.356 26.7645 27.9848 26.4731 27.6934C26.1818 27.4021 25.8106 27.2037 25.4064 27.1233C25.0023 27.0429 24.5834 27.0842 24.2027 27.2418C23.8221 27.3995 23.4967 27.6665 23.2678 28.0091C23.0388 28.3518 22.9167 28.7545 22.9167 29.1666C22.9167 29.7191 23.1362 30.249 23.5269 30.6397C23.9176 31.0304 24.4475 31.2499 25 31.2499ZM39.5833 6.24992H37.5V4.16659C37.5 3.61405 37.2805 3.08415 36.8898 2.69345C36.4991 2.30275 35.9692 2.08325 35.4167 2.08325C34.8641 2.08325 34.3342 2.30275 33.9435 2.69345C33.5528 3.08415 33.3333 3.61405 33.3333 4.16659V6.24992H16.6667V4.16659C16.6667 3.61405 16.4472 3.08415 16.0565 2.69345C15.6658 2.30275 15.1359 2.08325 14.5833 2.08325C14.0308 2.08325 13.5009 2.30275 13.1102 2.69345C12.7195 3.08415 12.5 3.61405 12.5 4.16659V6.24992H10.4167C8.75906 6.24992 7.16935 6.9084 5.99725 8.0805C4.82514 9.2526 4.16666 10.8423 4.16666 12.4999V41.6666C4.16666 43.3242 4.82514 44.9139 5.99725 46.086C7.16935 47.2581 8.75906 47.9166 10.4167 47.9166H39.5833C41.2409 47.9166 42.8306 47.2581 44.0027 46.086C45.1749 44.9139 45.8333 43.3242 45.8333 41.6666V12.4999C45.8333 10.8423 45.1749 9.2526 44.0027 8.0805C42.8306 6.9084 41.2409 6.24992 39.5833 6.24992ZM41.6667 41.6666C41.6667 42.2191 41.4472 42.749 41.0565 43.1397C40.6658 43.5304 40.1359 43.7499 39.5833 43.7499H10.4167C9.86413 43.7499 9.33423 43.5304 8.94353 43.1397C8.55282 42.749 8.33333 42.2191 8.33333 41.6666V22.9166H41.6667V41.6666ZM41.6667 18.7499H8.33333V12.4999C8.33333 11.9474 8.55282 11.4175 8.94353 11.0268C9.33423 10.6361 9.86413 10.4166 10.4167 10.4166H12.5V12.4999C12.5 13.0525 12.7195 13.5824 13.1102 13.9731C13.5009 14.3638 14.0308 14.5833 14.5833 14.5833C15.1359 14.5833 15.6658 14.3638 16.0565 13.9731C16.4472 13.5824 16.6667 13.0525 16.6667 12.4999V10.4166H33.3333V12.4999C33.3333 13.0525 33.5528 13.5824 33.9435 13.9731C34.3342 14.3638 34.8641 14.5833 35.4167 14.5833C35.9692 14.5833 36.4991 14.3638 36.8898 13.9731C37.2805 13.5824 37.5 13.0525 37.5 12.4999V10.4166H39.5833C40.1359 10.4166 40.6658 10.6361 41.0565 11.0268C41.4472 11.4175 41.6667 11.9474 41.6667 12.4999V18.7499ZM14.5833 31.2499C14.9954 31.2499 15.3982 31.1277 15.7408 30.8988C16.0834 30.6699 16.3504 30.3445 16.5081 29.9638C16.6658 29.5832 16.707 29.1643 16.6266 28.7601C16.5462 28.356 16.3478 27.9848 16.0565 27.6934C15.7651 27.4021 15.3939 27.2037 14.9898 27.1233C14.5856 27.0429 14.1668 27.0842 13.7861 27.2418C13.4054 27.3995 13.08 27.6665 12.8511 28.0091C12.6222 28.3518 12.5 28.7545 12.5 29.1666C12.5 29.7191 12.7195 30.249 13.1102 30.6397C13.5009 31.0304 14.0308 31.2499 14.5833 31.2499ZM14.5833 39.5833C14.9954 39.5833 15.3982 39.4611 15.7408 39.2322C16.0834 39.0032 16.3504 38.6779 16.5081 38.2972C16.6658 37.9165 16.707 37.4976 16.6266 37.0935C16.5462 36.6894 16.3478 36.3181 16.0565 36.0268C15.7651 35.7354 15.3939 35.537 14.9898 35.4566C14.5856 35.3762 14.1668 35.4175 13.7861 35.5752C13.4054 35.7329 13.08 35.9999 12.8511 36.3425C12.6222 36.6851 12.5 37.0879 12.5 37.4999C12.5 38.0525 12.7195 38.5824 13.1102 38.9731C13.5009 39.3638 14.0308 39.5833 14.5833 39.5833Z" fill="#333333"/>
</svg>
