<svg width="41" height="41" viewBox="0 0 41 41" fill="none" xmlns="http://www.w3.org/2000/svg">
<path d="M33.21 22.2082C32.8342 22.2082 32.4413 22.0887 32.0654 22.0032C31.3043 21.8355 30.5564 21.6129 29.8275 21.337C29.035 21.0487 28.1639 21.0637 27.3817 21.379C26.5996 21.6944 25.9617 22.2879 25.5909 23.0453L25.215 23.8141C23.5511 22.8885 22.0221 21.7388 20.6709 20.3974C19.3294 19.0462 18.1798 17.5172 17.2542 15.8532L17.9717 15.3749C18.7291 15.0041 19.3226 14.3662 19.638 13.5841C19.9534 12.8019 19.9683 11.9308 19.68 11.1382C19.4088 10.4078 19.1862 9.6602 19.0138 8.90033C18.9284 8.5245 18.86 8.13158 18.8088 7.73867C18.6013 6.53535 17.971 5.44564 17.0315 4.66578C16.0919 3.88593 14.9047 3.46717 13.6838 3.48492H8.55877C7.82253 3.478 7.09345 3.62981 6.42115 3.92999C5.74885 4.23017 5.14912 4.67169 4.6628 5.22448C4.17647 5.77727 3.81496 6.42836 3.60287 7.13343C3.39079 7.83849 3.33311 8.58097 3.43377 9.31033C4.34386 16.4672 7.6124 23.1169 12.7231 28.209C17.8338 33.3011 24.4953 36.5454 31.6554 37.4295H32.3046C33.5644 37.4313 34.7807 36.9691 35.7213 36.1312C36.2617 35.6478 36.6935 35.0552 36.9879 34.3926C37.2824 33.73 37.433 33.0125 37.4296 32.2874V27.1624C37.4087 25.9758 36.9766 24.8332 36.207 23.9297C35.4375 23.0262 34.3782 22.4177 33.21 22.2082ZM34.0642 32.4582C34.0639 32.7008 34.0119 32.9405 33.9118 33.1614C33.8116 33.3823 33.6656 33.5794 33.4834 33.7395C33.2925 33.9043 33.0693 34.0274 32.828 34.101C32.5868 34.1745 32.3329 34.1969 32.0825 34.1666C25.6846 33.3462 19.7419 30.4193 15.1917 25.8475C10.6416 21.2757 7.74289 15.3191 6.95294 8.91742C6.92575 8.66718 6.94958 8.41402 7.02298 8.17325C7.09639 7.93248 7.21785 7.70909 7.38002 7.51658C7.54011 7.33436 7.73717 7.18831 7.95808 7.08816C8.179 6.98801 8.41871 6.93606 8.66127 6.93575H13.7863C14.1835 6.92691 14.5715 7.05684 14.8833 7.30316C15.1951 7.54949 15.4113 7.89681 15.4946 8.28533C15.5629 8.75228 15.6484 9.21353 15.7509 9.66908C15.9482 10.5696 16.2108 11.4546 16.5367 12.317L14.145 13.4274C13.9405 13.5212 13.7566 13.6545 13.6037 13.8196C13.4509 13.9847 13.3322 14.1784 13.2544 14.3895C13.1766 14.6007 13.1413 14.8251 13.1505 15.0499C13.1597 15.2747 13.2132 15.4954 13.3079 15.6995C15.7666 20.9659 19.9999 25.1992 25.2663 27.6578C25.6822 27.8287 26.1487 27.8287 26.5646 27.6578C26.7777 27.5816 26.9734 27.4639 27.1406 27.3114C27.3078 27.1589 27.443 26.9747 27.5384 26.7695L28.5975 24.3778C29.4807 24.6937 30.382 24.9561 31.2967 25.1637C31.7522 25.2662 32.2135 25.3516 32.6804 25.4199C33.069 25.5033 33.4163 25.7194 33.6626 26.0312C33.9089 26.3431 34.0389 26.731 34.03 27.1282L34.0642 32.4582Z" fill="#1E1E1E"/>
</svg>
