<svg width="50" height="50" viewBox="0 0 50 50" fill="none" xmlns="http://www.w3.org/2000/svg">
<path d="M32.2208 21.5491C31.8503 21.9777 30.9082 22.4086 29.6343 22.4086C29.6272 22.4086 29.62 22.4086 29.6114 22.4086C28.3548 22.4043 27.404 21.9806 27.0191 21.562C26.4691 20.9638 25.5399 20.9279 24.9411 21.4744C24.3436 22.0237 24.3034 22.9543 24.8535 23.5525C25.8817 24.6712 27.6568 25.3433 29.6013 25.3498C29.6128 25.3498 29.6243 25.3498 29.6358 25.3498C31.632 25.3498 33.4286 24.6489 34.4468 23.472C34.9781 22.8581 34.9092 21.9289 34.296 21.3983C33.6813 20.8683 32.755 20.933 32.2208 21.5491ZM26.0397 13.6662C25.4653 13.0917 24.5347 13.0917 23.9602 13.6662C22.9119 14.7146 21.2057 14.7146 20.1574 13.6662C19.5829 13.0917 18.6523 13.0917 18.0779 13.6662C17.5034 14.2406 17.5034 15.1713 18.0779 15.7457C19.1751 16.8436 20.6169 17.3922 22.0588 17.3922C23.5007 17.3922 24.9425 16.8436 26.0397 15.7457C26.6142 15.1713 26.6142 14.2406 26.0397 13.6662ZM35.7249 13.6662C34.6766 14.7146 32.9704 14.7146 31.9221 13.6662C31.3476 13.0917 30.417 13.0917 29.8426 13.6662C29.2681 14.2406 29.2681 15.1713 29.8426 15.7457C30.9398 16.8436 32.3816 17.3922 33.8235 17.3922C35.2654 17.3922 36.7072 16.8436 37.8044 15.7457C38.3789 15.1712 38.3789 14.2406 37.8044 13.6662C37.23 13.0918 36.2994 13.0917 35.7249 13.6662Z" fill="#333333"/>
<path d="M25 2.94116C12.836 2.94116 2.94116 12.8368 2.94116 25C2.94116 37.1632 12.836 47.0588 25 47.0588C37.1639 47.0588 47.0588 37.1632 47.0588 25C47.0588 12.8368 37.1639 2.94116 25 2.94116ZM25 44.1176C14.4589 44.1176 5.88234 35.5418 5.88234 25C5.88234 14.4581 14.4589 5.88234 25 5.88234C35.5411 5.88234 44.1176 14.4581 44.1176 25C44.1176 35.5418 35.5411 44.1176 25 44.1176Z" fill="#333333"/>
</svg>
