<svg width="50" height="50" viewBox="0 0 50 50" fill="none" xmlns="http://www.w3.org/2000/svg">
<path d="M44.5312 46.875H31.25V39.0625H29.6875V47.6562C29.6875 47.8634 29.7698 48.0622 29.9163 48.2087C30.0628 48.3552 30.2615 48.4375 30.4688 48.4375H45.3125C45.5197 48.4375 45.7184 48.3552 45.8649 48.2087C46.0114 48.0622 46.0938 47.8634 46.0938 47.6562V41.4062H44.5312V46.875ZM46.875 23.3841L46.101 29.017C46.0961 29.0522 46.0937 29.0877 46.0938 29.1233C46.094 29.3967 46.0418 29.6675 45.9401 29.9212L44.5871 33.3036C44.5502 33.3959 44.5312 33.4944 44.5312 33.5938V39.8438H46.0938V33.7442L47.3909 30.5014C47.5595 30.0808 47.6493 29.6329 47.6559 29.1799L48.4303 23.5438C48.4351 23.5086 48.4375 23.4731 48.4375 23.4375V20.3125H46.875V23.3841ZM43.75 8.59375H43.6848C43.4988 7.50208 42.9329 6.5113 42.087 5.79651C41.2412 5.08171 40.1699 4.68891 39.0625 4.6875H38.7947C38.4706 3.7742 37.8718 2.98356 37.0805 2.42406C36.2892 1.86457 35.3441 1.56362 34.375 1.5625H33.5938C33.3865 1.5625 33.1878 1.64481 33.0413 1.79132C32.8948 1.93784 32.8125 2.13655 32.8125 2.34375V5.1029C31.9545 4.33159 30.8412 3.9053 29.6875 3.90625H28.9062C28.699 3.90625 28.5003 3.98856 28.3538 4.13507C28.2073 4.28159 28.125 4.4803 28.125 4.6875V11.7188H29.6875V5.46875C30.516 5.4697 31.3103 5.79924 31.8962 6.38509C32.482 6.97093 32.8116 7.76524 32.8125 8.59375V22.6562H34.375V3.125C35.2035 3.12595 35.9978 3.45549 36.5837 4.04134C37.1695 4.62718 37.4991 5.42149 37.5 6.25V22.6562H39.0625V6.25C39.891 6.25095 40.6853 6.58049 41.2712 7.16634C41.857 7.75218 42.1866 8.54649 42.1875 9.375V22.6562H43.75V10.1562C44.5785 10.1572 45.3728 10.4867 45.9587 11.0726C46.5445 11.6584 46.8741 12.4527 46.875 13.2812V18.75H48.4375V13.2812C48.4361 12.0385 47.9418 10.847 47.063 9.96822C46.1843 9.08944 44.9928 8.59514 43.75 8.59375Z" fill="#333333"/>
<path d="M33.4812 37.1227C33.5508 37.0076 33.5894 36.8764 33.5934 36.742C33.5974 36.6075 33.5666 36.4743 33.504 36.3552L29.7379 29.1904C30.7322 27.1557 31.2494 24.921 31.25 22.6563H29.6875C29.6874 24.8077 29.1657 26.9269 28.1672 28.8325C28.1081 28.9447 28.0773 29.0695 28.0772 29.1963C28.0772 29.323 28.108 29.4478 28.167 29.56L31.5192 35.9375H16.4063C9.08301 35.9375 3.125 29.9795 3.125 22.6563C3.125 15.333 9.08301 9.37502 16.4063 9.37502C19.6747 9.36937 22.83 10.5713 25.2664 12.7501C27.7027 14.9288 29.2483 17.9308 29.6064 21.1796L31.1594 21.0079C30.7595 17.3767 29.0322 14.0211 26.3092 11.5857C23.5862 9.15019 20.0595 7.80647 16.4063 7.81252C8.22134 7.81252 1.5625 14.4714 1.5625 22.6563C1.5625 30.8412 8.22134 37.5 16.4063 37.5H32.8125C32.947 37.5 33.0793 37.4653 33.1964 37.3992C33.3136 37.3331 33.4117 37.2379 33.4812 37.1227Z" fill="#333333"/>
<path d="M4.6875 22.6563C4.68976 25.6827 5.86613 28.5902 7.96897 30.7668C10.0718 32.9433 12.9371 34.2191 15.9616 34.3255C18.9862 34.432 21.9341 33.3608 24.1847 31.3375C26.4354 29.3142 27.8133 26.4966 28.0283 23.4778C28.2433 20.459 27.2787 17.4746 25.3376 15.1527C23.3964 12.8308 20.6301 11.3526 17.621 11.0293C14.6119 10.706 11.5947 11.5628 9.20462 13.4193C6.81451 15.2758 5.23791 17.9872 4.80671 20.9827L6.35338 21.2049C6.72787 18.5996 8.09861 16.2413 10.177 14.6264C12.2555 13.0115 14.8794 12.266 17.4964 12.5469C20.1135 12.8279 22.5194 14.1133 24.2077 16.1325C25.896 18.1517 26.735 20.7473 26.548 23.3727C26.361 25.9981 25.1626 28.4486 23.2051 30.2081C21.2477 31.9677 18.6838 32.8991 16.0534 32.8063C13.423 32.7134 10.9312 31.6036 9.10265 29.7104C7.27409 27.8172 6.25145 25.2884 6.25 22.6563H4.6875Z" fill="#333333"/>
<path d="M14.0625 29.6874C14.1651 29.6876 14.2667 29.6674 14.3615 29.6282C14.4563 29.5889 14.5425 29.5313 14.6149 29.4586L23.9899 20.0836C24.1364 19.9371 24.2187 19.7384 24.2187 19.5312C24.2187 19.324 24.1364 19.1253 23.9899 18.9787L23.0273 18.0161C22.5141 17.5041 21.8187 17.2166 21.0937 17.2166C20.3688 17.2166 19.6734 17.5041 19.1601 18.0161L14.0625 23.1139L12.8711 21.9223C12.3578 21.4103 11.6624 21.1228 10.9375 21.1228C10.2125 21.1228 9.51714 21.4103 9.00388 21.9223L8.04125 22.885C7.89474 23.0315 7.81244 23.2302 7.81244 23.4374C7.81244 23.6446 7.89474 23.8434 8.04125 23.9899L13.51 29.4586C13.5825 29.5313 13.6686 29.5889 13.7634 29.6282C13.8582 29.6674 13.9599 29.6876 14.0625 29.6874ZM10.1088 23.0273C10.3288 22.8078 10.6268 22.6845 10.9375 22.6845C11.2482 22.6845 11.5462 22.8078 11.7661 23.0273L13.51 24.7712C13.6566 24.9176 13.8553 24.9999 14.0625 24.9999C14.2697 24.9999 14.4684 24.9176 14.6149 24.7712L20.2651 19.121C20.4849 18.9013 20.7829 18.7778 21.0937 18.7778C21.4045 18.7778 21.7026 18.9013 21.9224 19.121L22.3326 19.5312L14.0625 27.8014L9.69856 23.4374L10.1088 23.0273ZM26.1561 43.8255L24.3236 42.8232L23.3213 40.9907C23.254 40.8677 23.1549 40.7651 23.0343 40.6936C22.9137 40.6221 22.7761 40.5843 22.6359 40.5843C22.4957 40.5843 22.3581 40.6221 22.2375 40.6936C22.1169 40.7651 22.0178 40.8677 21.9505 40.9907L20.9483 42.8232L19.1157 43.8255C18.9927 43.8927 18.8901 43.9919 18.8186 44.1125C18.7471 44.2331 18.7094 44.3707 18.7094 44.5109C18.7094 44.6511 18.7471 44.7887 18.8186 44.9093C18.8901 45.0299 18.9927 45.129 19.1157 45.1963L20.9483 46.1986L21.9505 48.0311C22.0178 48.1541 22.1169 48.2567 22.2375 48.3282C22.3581 48.3997 22.4957 48.4374 22.6359 48.4374C22.7761 48.4374 22.9137 48.3997 23.0343 48.3282C23.1549 48.2567 23.254 48.1541 23.3213 48.0311L24.3236 46.1986L26.1561 45.1963C26.2791 45.129 26.3817 45.0299 26.4532 44.9093C26.5247 44.7887 26.5624 44.6511 26.5624 44.5109C26.5624 44.3707 26.5247 44.2331 26.4532 44.1125C26.3817 43.9919 26.2791 43.8927 26.1561 43.8255ZM23.3731 44.9375C23.242 45.0093 23.1343 45.117 23.0626 45.2481L22.6359 46.0281L22.2093 45.2481C22.1376 45.117 22.0298 45.0092 21.8988 44.9375L21.1187 44.5109L21.8988 44.0843C22.0299 44.0126 22.1376 43.9048 22.2093 43.7737L22.6359 42.9937L23.0626 43.7737C23.1343 43.9048 23.242 44.0126 23.3731 44.0843L24.1531 44.5109L23.3731 44.9375ZM38.692 30.6341L39.5489 32.2009C39.6162 32.3239 39.7154 32.4266 39.836 32.4981C39.9565 32.5695 40.0942 32.6073 40.2344 32.6073C40.3745 32.6073 40.5122 32.5695 40.6328 32.4981C40.7533 32.4266 40.8525 32.3239 40.9198 32.2009L41.7767 30.6341L43.3436 29.7771C43.4666 29.7098 43.5692 29.6107 43.6407 29.4901C43.7122 29.3695 43.7499 29.2319 43.7499 29.0917C43.7499 28.9515 43.7122 28.8139 43.6407 28.6933C43.5692 28.5727 43.4666 28.4736 43.3436 28.4063L41.7767 27.5493L40.9198 25.9824C40.8525 25.8594 40.7533 25.7568 40.6328 25.6853C40.5122 25.6138 40.3745 25.5761 40.2344 25.5761C40.0942 25.5761 39.9565 25.6138 39.836 25.6853C39.7154 25.7568 39.6162 25.8594 39.5489 25.9824L38.692 27.5493L37.1251 28.4063C37.0021 28.4736 36.8995 28.5727 36.828 28.6933C36.7565 28.8139 36.7188 28.9515 36.7188 29.0917C36.7188 29.2319 36.7565 29.3695 36.828 29.4901C36.8995 29.6107 37.0021 29.7098 37.1251 29.7771L38.692 30.6341ZM39.6425 28.8103C39.7736 28.7387 39.8814 28.6309 39.9531 28.4998L40.2344 27.9854L40.5157 28.4998C40.5874 28.6309 40.6951 28.7387 40.8262 28.8104L41.3407 29.0917L40.8262 29.373C40.6951 29.4447 40.5874 29.5525 40.5157 29.6836L40.2344 30.1979L39.953 29.6835C39.8813 29.5524 39.7736 29.4447 39.6425 29.373L39.1281 29.0916L39.6425 28.8103Z" fill="#333333"/>
</svg>
