<svg width="26" height="26" viewBox="0 0 26 26" fill="none" xmlns="http://www.w3.org/2000/svg">
<path d="M18.785 5.91484C18.5279 5.91484 18.2765 5.99108 18.0628 6.13393C17.849 6.27677 17.6824 6.4798 17.584 6.71735C17.4856 6.95489 17.4598 7.21628 17.51 7.46845C17.5601 7.72063 17.684 7.95227 17.8658 8.13408C18.0476 8.31588 18.2792 8.4397 18.5314 8.48986C18.7836 8.54002 19.0449 8.51427 19.2825 8.41588C19.52 8.31749 19.7231 8.15086 19.8659 7.93708C20.0088 7.72329 20.085 7.47195 20.085 7.21484C20.085 6.87006 19.948 6.5394 19.7042 6.2956C19.4604 6.0518 19.1298 5.91484 18.785 5.91484ZM23.7683 8.5365C23.7473 7.63766 23.5789 6.74836 23.27 5.904C22.9945 5.18156 22.5658 4.52739 22.0133 3.9865C21.4769 3.43122 20.8212 3.0052 20.0958 2.74067C19.2537 2.42234 18.3634 2.25015 17.4633 2.2315C16.315 2.1665 15.9467 2.1665 13 2.1665C10.0533 2.1665 9.685 2.1665 8.53667 2.2315C7.63659 2.25015 6.74629 2.42234 5.90417 2.74067C5.18015 3.00787 4.52502 3.43353 3.98667 3.9865C3.43138 4.52295 3.00536 5.17865 2.74084 5.904C2.42251 6.74613 2.25032 7.63642 2.23167 8.5365C2.16667 9.68484 2.16667 10.0532 2.16667 12.9998C2.16667 15.9465 2.16667 16.3148 2.23167 17.4632C2.25032 18.3633 2.42251 19.2535 2.74084 20.0957C3.00536 20.821 3.43138 21.4767 3.98667 22.0132C4.52502 22.5661 5.18015 22.9918 5.90417 23.259C6.74629 23.5773 7.63659 23.7495 8.53667 23.7682C9.685 23.8332 10.0533 23.8332 13 23.8332C15.9467 23.8332 16.315 23.8332 17.4633 23.7682C18.3634 23.7495 19.2537 23.5773 20.0958 23.259C20.8212 22.9945 21.4769 22.5685 22.0133 22.0132C22.5683 21.4743 22.9974 20.8195 23.27 20.0957C23.5789 19.2513 23.7473 18.362 23.7683 17.4632C23.7683 16.3148 23.8333 15.9465 23.8333 12.9998C23.8333 10.0532 23.8333 9.68484 23.7683 8.5365ZM21.8183 17.3332C21.8104 18.0208 21.6859 18.7022 21.45 19.3482C21.277 19.8196 20.9992 20.2456 20.6375 20.594C20.2861 20.9521 19.861 21.2293 19.3917 21.4065C18.7457 21.6424 18.0643 21.7669 17.3767 21.7748C16.2933 21.829 15.8925 21.8398 13.0433 21.8398C10.1942 21.8398 9.79334 21.8398 8.71 21.7748C7.99597 21.7882 7.28498 21.6783 6.60834 21.4498C6.1596 21.2636 5.75397 20.987 5.41667 20.6373C5.0571 20.2893 4.78275 19.863 4.61501 19.3915C4.35052 18.7362 4.20382 18.0394 4.18167 17.3332C4.18167 16.2498 4.11667 15.849 4.11667 12.9998C4.11667 10.1507 4.11667 9.74984 4.18167 8.6665C4.18653 7.96348 4.31487 7.26678 4.56084 6.60817C4.75156 6.15091 5.04429 5.7433 5.41667 5.4165C5.7458 5.04402 6.15257 4.74819 6.60834 4.54984C7.26868 4.31155 7.96467 4.18701 8.66667 4.1815C9.75 4.1815 10.1508 4.1165 13 4.1165C15.8492 4.1165 16.25 4.1165 17.3333 4.1815C18.021 4.18939 18.7023 4.31394 19.3483 4.54984C19.8406 4.73254 20.2825 5.02959 20.6375 5.4165C20.9925 5.74928 21.2699 6.15613 21.45 6.60817C21.6908 7.26785 21.8154 7.96426 21.8183 8.6665C21.8725 9.74984 21.8833 10.1507 21.8833 12.9998C21.8833 15.849 21.8725 16.2498 21.8183 17.3332ZM13 7.44234C11.9013 7.44448 10.8279 7.77224 9.91538 8.38421C9.00288 8.99617 8.29225 9.86488 7.87327 10.8806C7.4543 11.8963 7.34579 13.0133 7.56145 14.0907C7.77711 15.168 8.30726 16.1572 9.08492 16.9334C9.86258 17.7095 10.8528 18.2378 11.9306 18.4513C13.0084 18.6649 14.1252 18.5542 15.1401 18.1333C16.155 17.7123 17.0223 17 17.6325 16.0863C18.2427 15.1726 18.5683 14.0985 18.5683 12.9998C18.5698 12.2687 18.4266 11.5445 18.1472 10.8689C17.8677 10.1933 17.4574 9.57955 16.9399 9.06306C16.4225 8.54657 15.8079 8.13749 15.1318 7.85934C14.4556 7.5812 13.7311 7.43948 13 7.44234ZM13 16.6073C12.2865 16.6073 11.589 16.3958 10.9958 15.9994C10.4025 15.603 9.94015 15.0396 9.66711 14.3804C9.39407 13.7212 9.32263 12.9958 9.46182 12.296C9.60102 11.5963 9.9446 10.9535 10.4491 10.4489C10.9536 9.94443 11.5964 9.60085 12.2962 9.46165C12.996 9.32246 13.7214 9.3939 14.3805 9.66694C15.0397 9.93998 15.6031 10.4024 15.9995 10.9956C16.3959 11.5889 16.6075 12.2863 16.6075 12.9998C16.6075 13.4736 16.5142 13.9427 16.3329 14.3804C16.1516 14.818 15.8859 15.2157 15.5509 15.5507C15.2159 15.8857 14.8182 16.1514 14.3805 16.3327C13.9429 16.514 13.4737 16.6073 13 16.6073Z" fill="white"/>
</svg>
