<svg width="24" height="24" viewBox="0 0 24 24" fill="none" xmlns="http://www.w3.org/2000/svg">
<path d="M19.0884 6.57619C19.0116 6.28795 18.8554 5.98099 18.7399 5.71219C17.3578 2.39059 14.3378 1.2002 11.8994 1.2002C8.6352 1.2002 5.04 3.38899 4.56 7.90075V8.82259C4.56 8.86099 4.5732 9.2066 4.59216 9.3794C4.8612 11.5296 6.55776 13.8146 7.82496 15.9648C9.18816 18.2685 10.6027 20.5346 12.0046 22.7997C12.8686 21.3216 13.7297 19.824 14.5742 18.384C14.8044 17.9613 15.0713 17.5389 15.3017 17.1357C15.4553 16.8672 15.7486 16.5986 15.8827 16.3488C17.2457 13.8535 19.44 11.3378 19.44 8.86099V7.84339C19.44 7.57483 19.1071 6.63403 19.0884 6.57619ZM11.9592 11.2034C10.9997 11.2034 9.94944 10.7236 9.43104 9.39859C9.35376 9.18763 9.36 8.765 9.36 8.72636V8.13116C9.36 6.44204 10.7942 5.67379 12.042 5.67379C13.578 5.67379 14.7662 6.90283 14.7662 8.43883C14.7662 9.97483 13.4952 11.2034 11.9592 11.2034Z" fill="white"/>
</svg>
