<svg width="24" height="25" viewBox="0 0 24 25" fill="none" xmlns="http://www.w3.org/2000/svg">
<g clip-path="url(#clip0_47_429)">
<path d="M20 4.1665H4C2.9 4.1665 2.01 5.104 2.01 6.24984L2 18.7498C2 19.8957 2.9 20.8332 4 20.8332H20C21.1 20.8332 22 19.8957 22 18.7498V6.24984C22 5.104 21.1 4.1665 20 4.1665ZM19 18.7498H5C4.45 18.7498 4 18.2811 4 17.7082V8.33317L10.94 12.854C11.59 13.2811 12.41 13.2811 13.06 12.854L20 8.33317V17.7082C20 18.2811 19.55 18.7498 19 18.7498ZM12 11.4582L4 6.24984H20L12 11.4582Z" fill="white"/>
</g>
<defs>
<clipPath id="clip0_47_429">
<rect width="24" height="25" fill="white"/>
</clipPath>
</defs>
</svg>
