<svg width="50" height="57" viewBox="0 0 50 57" fill="none" xmlns="http://www.w3.org/2000/svg">
<path fill-rule="evenodd" clip-rule="evenodd" d="M22 12.4688C13.3214 18.0263 9.10714 23.7619 9.10714 33.3451C9.67857 33.1669 10.1786 33.1669 10.6786 33.1669C15.2143 33.1669 19.6071 36.2307 19.6071 41.7526C19.6071 47.4882 15.9286 51.0507 10.6786 51.0507C3.89286 51.0507 0 45.6357 0 35.9101C0 22.3726 6.25 12.6469 17.9286 5.91382L22 12.4688ZM47 12.4688C38.3214 18.0263 34.1071 23.7619 34.1071 33.3451C34.6786 33.1669 35.1786 33.1669 35.6786 33.1669C40.2143 33.1669 44.6071 36.2307 44.6071 41.7526C44.6071 47.4882 40.9286 51.0507 35.6786 51.0507C28.9286 51.0507 25.0357 45.6357 25.0357 35.9101C25.0357 22.3726 31.2857 12.6469 42.9643 5.91382L47.0357 12.4688H47Z" fill="#333333" fill-opacity="0.35"/>
</svg>
